<?xml version="1.0" ?><!DOCTYPE svg  PUBLIC '-//W3C//DTD SVG 1.1//EN'  'http://www.w3.org/Graphics/SVG/1.1/DTD/svg11.dtd'><svg height="32px" style="fill-rule:evenodd;clip-rule:evenodd;stroke-linejoin:round;stroke-miterlimit:2;" version="1.1" width="32px" xml:space="preserve" xmlns="http://www.w3.org/2000/svg" xmlns:serif="http://www.serif.com/" xmlns:xlink="http://www.w3.org/1999/xlink"><path d="M8.99,5l-0.99,-0c-0.552,-0 -1,0.448 -1,1l0,5c0,0.552 0.448,1 1,1l0.126,-0l0.003,0.011c0.094,0.358 0.237,0.702 0.426,1.021c0.224,0.379 0.511,0.721 0.846,1.008c0.324,0.277 0.693,0.503 1.088,0.664c0.34,0.139 0.699,0.231 1.065,0.271c0.429,0.048 0.866,0.027 1.288,-0.064c0.442,-0.095 0.867,-0.266 1.252,-0.503c0.426,-0.263 0.803,-0.606 1.104,-1.006c0.201,-0.267 0.368,-0.559 0.497,-0.868c0.071,-0.17 0.129,-0.345 0.176,-0.523l0.003,-0.011l0.126,-0c0.507,-0 0.926,-0.377 0.991,-0.866c0.97,0.263 1.833,0.885 2.51,1.632c0.904,0.997 1.499,2.229 1.499,3.234l0,1l-3,0c-0.552,0 -1,0.448 -1,1c0,0.552 0.448,1 1,1l7,0c-0,-0 0,1 0,1c-0,-0 -15,-0 -15,-0c-0.265,0 -0.52,-0.105 -0.707,-0.293c-0.188,-0.187 -0.293,-0.442 -0.293,-0.707l-0,-0.942c-0,-0 5.996,-0 5.996,-0c0.552,-0 1,-0.449 1,-1c0,-0.552 -0.448,-1 -1,-1l-6.996,-0c-0.552,-0 -1,0.447 -1,1l-0,1.942c-0,0.796 0.316,1.559 0.879,2.121c0.562,0.563 1.325,0.879 2.121,0.879l7,-0l-0,1l-9,-0c-0.796,-0 -1.559,0.316 -2.121,0.879c-0.563,0.562 -0.879,1.325 -0.879,2.121c0,1.392 0,3 0,3c0,0.552 0.448,1 1,1l2,0c0.552,0 1,-0.448 1,-1c0,-0.552 -0.448,-1 -1,-1l-1,0c-0,0 -0,-2 -0,-2c-0,-0.265 0.105,-0.52 0.293,-0.707c0.187,-0.188 0.442,-0.293 0.707,-0.293l17,-0c0,0 0,3 0,3c-0,0 -14,0 -14,0c-0.552,0 -1,0.448 -1,1c0,0.552 0.448,1 1,1l15,0c0.552,0 1,-0.448 1,-1l0,-14c0,-1.748 -0.796,-3.596 -1.689,-4.933c-0.634,-0.949 -1.324,-1.64 -1.794,-1.923c-0.473,-0.285 -1.088,-0.133 -1.373,0.339c-0.285,0.473 -0.133,1.088 0.339,1.373c0.315,0.19 0.741,0.686 1.165,1.321c0.694,1.04 1.352,2.464 1.352,3.823l-0,2l-2,0l0,-1c-0,-1.41 -0.749,-3.178 -2.017,-4.577c-1.05,-1.158 -2.44,-2.055 -3.983,-2.333l-0,-2.034c1.074,0.124 1.887,0.44 2.483,0.8c0.473,0.285 1.088,0.133 1.373,-0.339c0.285,-0.473 0.133,-1.088 -0.339,-1.373c-0.999,-0.603 -2.459,-1.144 -4.517,-1.144c-0,-0 -1.01,-0 -1.01,-0l0,-2c0,-0.552 -0.447,-1 -1,-1l-4,0c-0.552,0 -1,0.448 -1,1l0,2Zm10.01,17l0,1c0,-0 6,-0 6,-0l0,-1l-4,-0l-2,0Zm-5.268,-10l-3.464,-0c0.346,0.598 0.992,1 1.732,1c0.74,0 1.386,-0.402 1.732,-1Zm-3.744,-5l0.002,0l3.363,0l1.647,0l-0,3l-0.003,0l-5.997,-0c0,-0 0,-3 0,-3l0.988,-0Zm3.002,-2l-2,-0l0,-1l2,-0l0,1Z" id="_16-Microscope"/></svg>