<?xml version="1.0" ?><!DOCTYPE svg  PUBLIC '-//W3C//DTD SVG 1.1//EN'  'http://www.w3.org/Graphics/SVG/1.1/DTD/svg11.dtd'><svg height="32px" style="fill-rule:evenodd;clip-rule:evenodd;stroke-linejoin:round;stroke-miterlimit:2;" version="1.1" width="32px" xml:space="preserve" xmlns="http://www.w3.org/2000/svg" xmlns:serif="http://www.serif.com/" xmlns:xlink="http://www.w3.org/1999/xlink"><path d="M18,13.914l0,-1.914l7,-0c0.552,0 1,0.448 1,1l0,8.36c0,0.477 -0.336,0.887 -0.804,0.981l-2.634,0.527c-0.244,0.049 -0.497,0.005 -0.711,-0.123l-3.365,-2.02c-0.302,-0.181 -0.486,-0.506 -0.486,-0.857c0,-0 -0,-2.868 -0,-2.868c0,-0.552 -0.448,-1 -1,-1c-0.552,-0 -1,0.448 -1,1l0,2.868c0,1.053 0.553,2.03 1.457,2.572l0.547,0.328c-0.003,0.028 -0.004,0.057 -0.004,0.086l-0,4.146c0,-0 -9,0 -9,0c0,0 0,-1 0,-1c-0,-0.552 -0.448,-1 -1,-1c-0.552,0 -1,0.448 -1,1l0,2c0,0.552 0.448,1 1,1l11,0c0.552,0 1,-0.448 1,-1l-0,-4.034l0.822,0.494c0.64,0.384 1.401,0.515 2.132,0.369l2.634,-0.527c1.403,-0.28 2.412,-1.512 2.412,-2.942l0,-8.36c-0,-1.657 -1.343,-3 -3,-3l-1,-0l-0,-1c0,-0.066 -0.007,-0.132 -0.019,-0.196l-1,-5c-0,-0 -0.347,-0.804 -0.988,-0.804l-6.993,0c-0.552,0 -1,0.448 -1,1c-0,0.552 0.448,1 1,1l6.18,0l0.82,4.099l0,0.901l-15.397,-0c0.149,-0.513 0.334,-1.037 0.564,-1.545c0.822,-1.813 2.252,-3.455 4.833,-3.455c0.552,0 1,-0.448 1,-1c-0,-0.552 -0.448,-1 -1,-1c-3.521,0 -5.533,2.156 -6.654,4.629c-1.035,2.283 -1.278,4.825 -1.333,5.865c-0,0.007 -0.001,0.013 -0.001,0.02c-0.015,0.44 0.068,0.878 0.242,1.283l2.746,6.408l0,1.795c-0,0.552 0.448,1 1,1c0.552,0 1,-0.448 1,-1l0,-1l3,0c0.552,0 1,-0.448 1,-1l-0,-3.993c-0,-0.264 -0.104,-0.517 -0.29,-0.705l-0.71,-0.714l-0,-0.588l5,-0c0.552,-0 1,-0.448 1,-1c-0,-0.014 -0,-0.029 -0.001,-0.043l0,-0.004c0.001,-0.013 0.001,-0.026 0.001,-0.039Zm-8,1.086l-3.483,-0l2.142,5c0,-0 2.341,-0 2.341,0c-0,0 -0,-2.581 -0,-2.581c-0,0 -0.419,-0.422 -0.419,-0.422c-0.372,-0.375 -0.581,-0.881 -0.581,-1.409l-0,-0.588Zm-3.827,-3c-0.055,0.372 -0.093,0.71 -0.119,1l9.946,-0l0,-1l-9.827,-0Z" id="_22-Face-shield"/></svg>